<svg width="24" height="24" xmlns:xlink="http://www.w3.org/1999/xlink" xmlns="http://www.w3.org/2000/svg">
  <defs>
    <clipPath id="b">
      <use xlink:href="#a"/>
    </clipPath>
    <path d="M0 0h24v24H0V0z" id="a"/>
  </defs>
  <path d="M0 0h24v24H0V0z" fill="none"/>
  <g clip-path="url(#b)">
    <path d="M24 11.9997C24 5.42982 18.6663.0996298 12.0721.0609978L12 0l-.0721.0609978C5.3337.0996298 0 5.42982 0 11.9997c0 6.5701 5.33308 11.8997 11.9272 11.9385L12 24l.0728-.0618C18.6669 23.8994 24 18.5698 24 11.9997zm-8.4088-4.21251C14.8728 5.64677 13.6428 3.60477 12 1.9499c-1.6428 1.65487-2.87284 3.69687-3.59136 5.83729h7.18256zM9.86979 2.11256c-1.45788 1.712-2.55159 3.65519-3.20328 5.67463H2.75983c1.31953-2.8606 3.94101-5.00223 7.10996-5.67463zm4.26041 0c3.169.6724 5.7904 2.81403 7.11 5.67463h-3.9067c-.6519-2.01944-1.7454-3.96263-3.2033-5.67463zM2.26795 9.08339c-.27895.92331-.42977 1.90231-.42977 2.91631 0 1.0142.15041 1.9934.42977 2.9167h4.01968c-.20742-.9444-.31512-1.9007-.31512-2.8559 0-.9908.11608-1.9889.33862-2.97711H2.26795zm5.41707 2.97711c0-.9823.12159-1.9841.35456-2.97711h7.92082c.233.99301.3546 1.99481.3546 2.97711 0 .9493-.1134 1.9082-.3313 2.8559H8.01628c-.21805-.9477-.33126-1.9066-.33126-2.8559zM17.6889 9.08339c.2227.98821.3386 1.98631.3386 2.97711 0 .9552-.1075 1.9115-.3151 2.8559h4.0197c.2793-.9233.4295-1.9025.4295-2.9167 0-1.014-.1504-1.993-.4295-2.91631h-4.0432zM2.76003 16.2128c1.31749 2.8557 3.93325 4.9951 7.09566 5.6712-1.4732-1.7153-2.57264-3.6507-3.21881-5.6712H2.76003zM12 22.0499c-1.6631-1.6754-2.9039-3.7028-3.61813-5.8371h7.23623c-.7142 2.1343-1.9548 4.1617-3.6181 5.8371zm5.3629-5.8371c-.6462 2.0205-1.7454 3.9559-3.2186 5.6712 3.1626-.6761 5.7782-2.8155 7.0957-5.6712h-3.8771z" fill="#FFF" fill-rule="evenodd"/>
  </g>
</svg>
