<svg width="31" height="31" xmlns="http://www.w3.org/2000/svg"><path d="M28.615 0H2.385A2.387 2.387 0 000 2.385v26.23A2.387 2.387 0 002.385 31h12.519c.329 0 .596-.267.596-.596v-8.346a.596.596 0 00-.596-.596h-2.385a.596.596 0 01-.596-.597v-4.769c0-.329.267-.596.596-.596h2.385c.329 0 .596-.267.596-.596v-2.385a6.565 6.565 0 016.558-6.557h3.577c.329 0 .596.267.596.596v4.769c0 .329-.267.596-.596.596H23.25a1.79 1.79 0 00-1.788 1.788v1.193c0 .329.267.596.596.596h3.577a.597.597 0 01.591.67l-.596 4.77a.597.597 0 01-.591.521h-2.981a.596.596 0 00-.596.597v8.346c0 .329.267.596.596.596h6.557A2.387 2.387 0 0031 28.615V2.385A2.387 2.387 0 0028.615 0" fill="#FFF"/></svg>