<svg width="480" height="236" xmlns:xlink="http://www.w3.org/1999/xlink" xmlns="http://www.w3.org/2000/svg"><defs><clipPath id="b"><use xlink:href="#a"/></clipPath><path d="M0 235h480V0H0v235z" transform="translate(0 .838)" id="a"/></defs><path d="M31 198.388v7.45h-3.89v-6.5c0-2.225-1.076-3.35-2.813-3.35-1.885 0-3.134 1.55-3.134 3.575v6.275h-3.89v-14.6h-6.558v14.6H6.824v-14.6H1v-3.4h20.163v7.826c.735-1.9 2.472-3.075 4.845-3.075 3.06 0 4.992 2.175 4.992 5.799" fill="#FFF"/><path d="M37.008 200.728H47v-.737c0-4.278-2.844-7.153-6.902-7.153-4.129 0-7.098 2.902-7.098 7 0 4.25 3.215 7 8.187 7 2.103 0 4.28-.663 5.417-1.604v-3.03l-.025-.024c-1.385.89-3.537 1.5-5.268 1.5-2.35 0-4.106-1.068-4.303-2.952zm5.886-2.392h-5.763c.371-1.476 1.41-2.343 2.869-2.343 1.558 0 2.573.918 2.894 2.343z" fill="#FFF" fill-rule="evenodd"/><path d="M76 199.213h-1.462v7.131h-3.19l.803-7.13h-.56c-.317 4.17-2.607 7.624-6.966 7.624-4.727 0-8.625-3.626-8.625-9.154 0-5.849 4.385-9.846 10.767-9.846 2.364 0 4.8.666 6.798 1.802v3.356l-.026.024c-1.924-1.061-4.311-1.827-6.6-1.827-4.07 0-7.066 2.616-7.066 6.49 0 3.603 2.29 6.243 5.58 6.243 2.582 0 4.505-1.826 5.066-4.713h-4.214v-3.207H76v3.207z" fill="#FFF"/><path d="M0 235.838h480v-235H0v235z" fill="none"/><g clip-path="url(#b)"><path d="M78 205.838h4v-18h-4v18z" fill="#FFF"/><path d="M91.012 192.838c-4.035 0-7.012 2.977-7.012 7 0 4.022 2.977 7 7.012 7 4.012 0 6.988-2.978 6.988-7 0-4.023-2.976-7-6.988-7zm0 3.308c1.742 0 2.977 1.528 2.977 3.692s-1.235 3.691-2.977 3.691c-1.764 0-3.001-1.527-3.001-3.691 0-2.164 1.237-3.692 3.001-3.692zM109.946 205.838c3.505 0 6.054-2.797 6.054-6.69 0-3.892-2.55-6.689-6.054-6.689-2.255 0-4.093 1.24-5.049 3.26v-7.881H101v17.513h3.26l.441-2.797h.196c.932 2.043 2.77 3.284 5.049 3.284zm-1.079-10.484c1.815 0 3.236 1.654 3.236 3.794 0 2.141-1.421 3.795-3.236 3.795-1.838 0-3.235-1.654-3.235-3.795 0-2.14 1.397-3.794 3.235-3.794zM131 205.48v-6.631c0-3.983-2.245-6.011-6.513-6.011-1.949 0-4.07.406-5.599 1.026v3.244c1.899-.692 3.38-1.026 4.934-1.026 2.071 0 3.183.668 3.256 1.932l-4.169.62c-3.306.478-4.909 1.764-4.909 3.768 0 2.005 1.826 3.436 4.267 3.436 2.048 0 3.899-1.05 4.81-2.815h.2l.443 2.456H131zm-6.562-4.985l2.64-.43v.358c0 1.646-1.8 3.172-3.43 3.172-1.035 0-1.726-.5-1.726-1.287 0-.883.887-1.527 2.516-1.813z" fill="#FFF" fill-rule="evenodd"/><path d="M133 205.838h4v-18h-4v18zM4.968 221.238v4.15h9.457v3.4H4.968v7.05H1v-18h14v3.4H4.968z" fill="#FFF"/><path d="M23.012 221.838c-4.035 0-7.012 2.978-7.012 7s2.977 7 7.012 7c4.012 0 6.988-2.978 6.988-7s-2.976-7-6.988-7zm0 3.31c1.742 0 2.977 1.527 2.977 3.69 0 2.165-1.235 3.691-2.977 3.691-1.764 0-3.001-1.526-3.001-3.691 0-2.163 1.237-3.69 3.001-3.69zM39.012 221.838c-4.035 0-7.012 2.978-7.012 7s2.977 7 7.012 7c4.012 0 6.988-2.978 6.988-7s-2.976-7-6.988-7zm0 3.31c1.741 0 2.977 1.527 2.977 3.69 0 2.165-1.236 3.691-2.977 3.691-1.764 0-3.001-1.526-3.001-3.691 0-2.163 1.237-3.69 3.001-3.69zM63 235.352v-17.514h-3.897v7.93c-.932-2.043-2.77-3.309-5.049-3.309-3.53 0-6.054 2.797-6.054 6.69 0 3.893 2.524 6.689 6.054 6.689 2.279 0 4.117-1.265 5.049-3.307v.024h.196l.44 2.797H63zm-7.867-9.997c1.813 0 3.235 1.653 3.235 3.793 0 2.141-1.422 3.796-3.235 3.796-1.839 0-3.236-1.655-3.236-3.796 0-2.14 1.398-3.793 3.236-3.793zM81.225 229.038c3.636 0 5.775-2.05 5.775-5.55 0-3.524-2.044-5.65-5.846-5.65H73v18h3.78v-6.8h4.445zm-1.141-7.8c1.853 0 3.137.45 3.137 2.25 0 1.775-1.26 2.15-3.137 2.15H76.78v-4.4h3.304z" fill="#FFF" fill-rule="evenodd"/><path d="M90 235.838h4v-18h-4v18z" fill="#FFF"/><path d="M109 235.48v-6.63c0-3.984-2.245-6.012-6.512-6.012-1.949 0-4.071.406-5.6 1.026v3.244c1.9-.692 3.379-1.025 4.934-1.025 2.072 0 3.182.668 3.256 1.931l-4.17.62c-3.305.478-4.908 1.765-4.908 3.769 0 2.004 1.826 3.435 4.267 3.435 2.048 0 3.898-1.05 4.811-2.815h.197l.444 2.457H109zm-6.562-4.985l2.64-.429v.357c0 1.646-1.801 3.172-3.429 3.172-1.035 0-1.727-.5-1.727-1.287 0-.882.888-1.527 2.516-1.813z" fill="#FFF" fill-rule="evenodd"/><path d="M117.898 226.487v5.95H122v3.4h-4.41c-2.437 0-3.769-1.3-3.769-3.675v-5.675H111v-3.4h.231c.358 0 .795-.05 1.23-.25 1.18-.524 1.36-1.474 1.36-3.349v-1.65h4.077v1.3c0 1.676-.668 3.2-2.333 3.75v.2H122v3.4h-4.102zM128.524 220.65c0 1.378 1.929 2.28 3.88 2.406h.787v3.408h-4.025v9.374h-3.785v-9.374H123v-3.408h5.167v-.2c-1.62-.401-3.405-1.729-3.405-3.685 0-2.005 1.952-3.333 5.095-3.333 1.215 0 3.167.3 4.143.501v3.383c-1.262-.275-2.333-.4-3.071-.426-.857 0-2.405.15-2.405 1.354" fill="#FFF"/><path d="M141.012 221.838c-4.035 0-7.012 2.978-7.012 7s2.977 7 7.012 7c4.012 0 6.988-2.978 6.988-7s-2.976-7-6.988-7zm0 3.31c1.741 0 2.977 1.527 2.977 3.69 0 2.165-1.236 3.691-2.977 3.691-1.765 0-3.001-1.526-3.001-3.691 0-2.163 1.236-3.69 3.001-3.69z" fill="#FFF" fill-rule="evenodd"/><path d="M160 221.96v3.312c-.36-.073-.925-.098-1.414-.098-2.57 0-4.498 1.495-4.498 4.17v5.494H150v-12.51h3.42l.462 2.528h.206c.668-1.743 2.21-3.018 4.498-3.018.54 0 1.028.05 1.414.123M184 227.479v7.359h-3.874v-6.526c0-2.01-.829-3.138-2.241-3.138-1.778 0-2.948 1.423-2.948 4.096v5.568h-3.873v-6.256c0-2.206-.781-3.408-2.315-3.408-1.585 0-2.875 1.495-2.875 3.851v5.813H162v-12.51h3.24l.439 2.527h.195c.657-1.791 2.168-3.017 4.239-3.017 2.241 0 3.873 1.226 4.507 3.384.706-2.084 2.363-3.384 4.459-3.384 2.947 0 4.921 1.962 4.921 5.641M157 200.838c0 3.424-1.564 5-4.99 5H146v-3.4h5.387c1.119 0 1.665-.575 1.665-1.801v-12.8H157v13z" fill="#FFF"/><path d="M163.007 200.73H173v-.739c0-4.276-2.844-7.153-6.902-7.153-4.13 0-7.098 2.902-7.098 7 0 4.252 3.215 7 8.187 7 2.103 0 4.28-.662 5.418-1.604v-3.029l-.026-.024c-1.384.89-3.536 1.5-5.267 1.5-2.35 0-4.107-1.068-4.305-2.951zm5.888-2.394h-5.764c.37-1.476 1.41-2.342 2.87-2.342 1.558 0 2.572.918 2.894 2.342z" fill="#FFF" fill-rule="evenodd"/><path d="M202 192.838l-4.675 13h-5.45l-3.75-8.998-3.249 8.998h-5.45l-5.426-13h4.325l3.751 8.997 3.25-8.997h5.45l3.749 8.997 3.25-8.997H202z" fill="#FFF"/><path d="M208.273 185.838c-1.384 0-2.48 1.234-2.48 2.645 0 1.385 1.096 2.543 2.48 2.543 1.289 0 2.459-1.158 2.459-2.543 0-1.41-1.17-2.645-2.46-2.645zm5.727 20v-3.426h-3.602v-6.927c0-1.612-.836-2.494-2.362-2.494h-4.177v3.425h2.744v5.996H203v3.426h11z" fill="#FFF" fill-rule="evenodd"/><path d="M222.572 196.198c-1.248-.025-2.262.127-2.308.714-.047.432.565.763 2.308 1.526 1.601.636 4.428 1.654 4.428 4.43 0 2.672-2.308 3.97-5.275 3.97-2.05 0-4.358-.535-5.725-1.196v-3.36l.024-.026c1.296.636 3.675 1.247 4.923 1.298 1.06.027 1.837-.177 1.837-.79.048-.864-1.602-1.322-2.474-1.703-1.86-.764-4.239-1.91-4.239-4.379 0-2.443 2.19-3.844 5.512-3.844 1.624 0 3.887.382 5.04.967v3.335l-.023.026c-1.202-.56-3.18-.917-4.028-.968M244 198.388v7.45h-3.968v-6.5c0-2.224-1.098-3.35-2.87-3.35-1.92 0-3.195 1.55-3.195 3.575v6.275H230v-18h3.967v7.826c.749-1.9 2.52-3.076 4.942-3.076 3.12 0 5.091 2.175 5.091 5.8" fill="#FFF"/><path d="M385.058 146.276v-22.31c-6.753-7.279-17.721-11.032-25.045-13.73-12.226-4.961-16.519-7.112-16.19-9.925.33-3.806 7.434-4.799 16.19-4.633 5.243.292 16.645 2.127 25.045 5.05V78.763c-8.613-3.024-22.007-4.925-31.983-4.925-15.463 0-27.426 4.014-33.726 11.357a18.034 18.034 0 011.05 6.016c0 4.772-2.096 9.255-5.399 12.578 3.039 12.677 17.532 19.071 29.153 23.49 6.113 2.482 17.677 5.46 17.347 11.086 0 3.972-5.451 5.295-12.884 5.13-7.596-.287-21.154-3.312-30.547-6.81.003.176.02.344.02.522v21.523c9.7 3.496 23.518 6.108 35.977 6.108 17.676 0 32.01-6.088 35.934-18.562h-4.942z" fill="#FCF239"/><path d="M446.181 57.24c-16.078 0-27.85 7.769-32.822 20.329V25.838H387v119h26.359v-41.485c0-13.388 8.453-23.633 21.22-23.633 11.769 0 19.062 7.436 19.062 22.147v42.97H480V95.586c0-23.965-13.096-38.345-33.819-38.345M26.357 50.75V23.315H93V.838H0v119h26.357V73.23H62.72c1.69-8.551 5.591-16.286 11.4-22.48H26.358z" fill="#FCF239"/><path d="M109.083 37.838c-13.349 0-24.93 4.907-33.145 13.11-5.972 5.964-10.158 13.669-11.953 22.503A49.593 49.593 0 0063 83.337c0 26.143 19.561 45.5 46.083 45.5.66 0 1.311-.02 1.961-.044.233-8.646 2.584-16.76 6.8-23.694-2.585 1.443-5.541 2.23-8.761 2.23-11.603 0-19.726-9.927-19.726-23.992 0-14.063 8.123-23.99 19.726-23.99 11.439 0 19.562 9.927 19.562 23.99 0 4.225-.738 8.073-2.074 11.394 7.69-6.706 17.594-10.667 28.429-11.385v-.01c0-26.14-19.56-45.498-45.917-45.498" fill="#FCF239"/><path d="M248.76 78.024V23.838H275v119.675h-21.949l-2.97-19.115h-1.322v-.166c-6.27 13.962-18.65 22.606-33.996 22.606-3.703 0-7.24-.465-10.574-1.35-.48-.126-.95-.271-1.42-.415C185.487 139.779 174 122.984 174 101.128c0-4.669.534-9.1 1.526-13.243.117-.487.237-.97.367-1.45 5.044-18.66 19.766-31.017 38.87-31.017 15.347 0 27.726 8.644 33.996 22.606zm-44.473 38.445c3.892 6.473 10.272 10.589 17.737 10.589 12.213 0 21.784-11.303 21.784-25.93 0-14.627-9.571-25.93-21.784-25.93-12.377 0-21.783 11.303-21.783 25.93 0 2.513.283 4.924.806 7.2.683 2.983 1.788 5.727 3.24 8.141z" fill="#FCF239" fill-rule="evenodd"/><path d="M177.958 125.495c.222 1.55.339 3.166.339 4.842 0 14.066-8.08 23.992-19.458 23.992-11.542 0-19.621-9.926-19.621-23.992 0-4.212.729-8.05 2.056-11.365a23.338 23.338 0 012.17-4.19 19.997 19.997 0 012.916-3.497 18.025 18.025 0 013.573-2.656c2.618-1.474 5.621-2.28 8.906-2.28 6.262 0 11.52 3.01 14.987 8.057-1.043-4.269-1.604-8.83-1.604-13.627 0-4.807.563-9.375 1.608-13.649-4.65-1.485-9.68-2.292-14.991-2.292-.71 0-1.415.021-2.117.048-.5.02-.997.054-1.491.089-12.313.844-22.903 5.985-30.4 14.058a42.913 42.913 0 00-2.976 3.567c-5.354 7.194-8.532 16.19-8.82 26.242-.015.498-.035.993-.035 1.495v.003c.001 26.142 19.46 45.498 45.839 45.498 20.658 0 37.11-12.022 43.161-29.908-10.428-3.215-18.851-10.476-24.042-20.435M302.082 107.838c4.254 0 8.316-1.75 11.395-4.568a18.08 18.08 0 001.295-1.316C317.37 99.028 319 95.25 319 91.168c0-1.573-.238-3.111-.669-4.584a17.114 17.114 0 00-.583-1.67c-2.594-6.351-8.888-11.076-15.666-11.076-9.527 0-17.082 8.088-17.082 17.33 0 9.077 7.555 16.67 17.082 16.67M317.107 182.17V136.338c0-.383-.023-.744-.039-1.114a25.7 25.7 0 00-.12-1.673c-.95-8.883-6.576-13.713-16.164-13.713h-23.538v22.666h13.647v39.666H266v22.668h76V182.17h-24.893z" fill="#FCF239"/></g></svg>