<?xml version="1.0" encoding="utf-8"?>
<!-- Generator: Adobe Illustrator 19.1.1, SVG Export Plug-In . SVG Version: 6.00 Build 0)  -->
<svg version="1.1" id="Layer_1" xmlns="http://www.w3.org/2000/svg" xmlns:xlink="http://www.w3.org/1999/xlink" x="0px" y="0px"
	 viewBox="-405 240 148.1 83" style="enable-background:new -405 240 148.1 83;" xml:space="preserve">
<style type="text/css">
	.st0{fill:#FCB034;}
	.st1{fill:#46C3D3;}
	.st2{fill:#BF311A;}
	.st3{fill:#232F84;}
	.st4{fill:#CBEAEE;}
	.st5{fill:#FFFFFF;}
</style>
<title>LogoBH Both</title>
<g id="Layer_2-2">
	<path class="st0" d="M-296.6,316.7l3.7,6.3l3.6-6.3C-291.6,315.4-294.4,315.4-296.6,316.7L-296.6,316.7z"/>
	<path class="st1" d="M-321.8,260.5h-7.3l3.6,6.3C-323.2,265.5-321.8,263.1-321.8,260.5z"/>
	<polygon class="st2" points="-315.5,297 -319.7,298.1 -320.5,302.8 -314.7,302.8 -315.5,297 	"/>
	<polygon class="st2" points="-323.7,269.9 -317.4,270.5 -318.3,279.3 -323.7,269.9 	"/>
	<polygon class="st0" points="-325.7,297 -329.1,302.8 -322.4,302.8 -321.6,298.2 -325.7,297 	"/>
	<path class="st2" d="M-297.7,247.8c0,0,7.2-1.5,8-1.7c0,0-1.2-2.2-3.5-6.1L-297.7,247.8L-297.7,247.8z"/>
	<polygon class="st3" points="-315.9,283.6 -317,281.8 -320.7,288.2 -318.4,289.5 -315.9,283.6 	"/>
	<polygon class="st3" points="-268.4,272.3 -266.3,265.9 -261,267.1 -264.5,273.1 -268.4,272.3 	"/>
	<polygon class="st2" points="-300,310.9 -294,309.9 -297.2,304.6 -301.6,308 -300,310.9 	"/>
	<path class="st0" d="M-302.3,306.8l5-3.9h-7.2L-302.3,306.8L-302.3,306.8z"/>
	<polygon class="st2" points="-272.4,275.5 -269.1,281 -265.4,274.5 -269,273.7 -272.4,275.5 	"/>
	<polygon class="st1" points="-292.1,309.2 -291.1,313.6 -288.3,314.8 -285.6,310 -292.1,309.2 	"/>
	<polygon class="st2" points="-260.6,296.4 -256.9,302.8 -262.7,302.8 -260.6,296.4 	"/>
	<polygon class="st1" points="-293.4,248.8 -298.9,250 -302.2,255.8 -296.5,255.6 -293.4,248.8 	"/>
	<path class="st1" d="M-266,295.8l4.5-0.8l-2.6-4.5l-7.1-0.2C-271.2,290.3-269,292.5-266,295.8L-266,295.8z"/>
	<polygon class="st0" points="-287.1,257.7 -284.3,255.3 -288.5,248 -291,248.5 -292.8,252.4 -287.1,257.7 	"/>
	<polygon class="st2" points="-272.3,265.6 -268.1,265.6 -266.5,260.5 -270.8,260.5 -272.3,265.6 	"/>
	<polygon class="st4" points="-272.3,298.7 -271.9,291.9 -266.6,297.5 -269.9,299.3 -272.3,298.7 	"/>
	<polygon class="st1" points="-301.4,279.9 -305.3,277.2 -309.2,283.4 -304.1,286.2 -301.4,279.9 	"/>
	<path class="st1" d="M-301.4,298.1l4.8-5.5l-2.8-1.8c0,0-3.6,2-5.3,3.1C-304.7,294-301.4,298.1-301.4,298.1z"/>
	<path class="st0" d="M-306.8,293.4c0,0,5.2-3.2,5.9-3.6c0,0-4.3-2.5-5-2.9L-306.8,293.4L-306.8,293.4z"/>
	<polygon class="st2" points="-311.9,272.8 -309,280.5 -313.4,284.3 -316,280 -311.9,272.8 	"/>
	<polygon class="st4" points="-301.4,270.9 -297.7,274.5 -294.1,273.4 -295.6,266.9 -301.4,270.9 	"/>
	<polygon class="st1" points="-288.4,273.7 -290.5,262.1 -294.8,263.1 -292.9,270.6 -288.4,273.7 	"/>
	<polygon class="st4" points="-279.4,271.9 -287.2,271.8 -284.7,278.4 -279.4,271.9 	"/>
	<polygon class="st3" points="-273.9,298.7 -278.1,297.2 -274.2,290.2 -273.9,298.7 	"/>
	<polygon class="st0" points="-273.7,276.4 -270.2,282.6 -275.7,281.8 -273.7,276.4 	"/>
	<polygon class="st4" points="-272.6,284.2 -282.3,281.8 -279.9,286.7 -275,288.5 -272.6,284.2 	"/>
	<polygon class="st3" points="-308,278.6 -303.4,271.1 -306.6,267.9 -310.2,272.6 -308,278.6 	"/>
	<polygon class="st1" points="-311,260.5 -309,260.5 -306.2,264.6 -310.8,270.5 -311,260.5 	"/>
	<polygon class="st1" points="-306.4,302.8 -313.3,302.8 -314,297.9 -306.4,302.8 	"/>
	<polygon class="st2" points="-306.2,262.8 -304.1,264.5 -298.6,257.5 -303.2,257.5 -306.2,262.8 	"/>
	<polygon class="st2" points="-312,290.3 -313.7,296.1 -310.3,298.2 -307.9,292.8 -312,290.3 	"/>
	<path class="st4" d="M-315,294.9l1.9-6.4l-1.9-3.3l-4.4,10.8L-315,294.9z"/>
	<path class="st1" d="M-297.7,314.8l4.7-1.1l-0.5-2.3l-5.6,0.9L-297.7,314.8L-297.7,314.8z"/>
	<path class="st4" d="M-289.1,301.4l-4.4-0.2c-0.3,1.3-1,2.5-1.9,3.6l3.1,3.2C-290.2,306.4-289.1,304-289.1,301.4L-289.1,301.4z"/>
	<path class="st0" d="M-267.6,302.8h3.2l1.4-5.7l-5.7,3.6C-268.7,300.7-267.6,302.8-267.6,302.8z"/>
	<path class="st2" d="M-264.9,289l-2.9-5l-3.2,1c0,0-1.8,3-2,3.6L-264.9,289L-264.9,289z"/>
	<polygon class="st1" points="-269.5,302.8 -270.6,300.8 -277.3,299 -280,302.8 -269.5,302.8 	"/>
	<polygon class="st2" points="-279.2,299.1 -284.4,294.7 -288.1,300.6 -281.6,303.1 -279.2,299.1 	"/>
	<path class="st0" d="M-292.7,299.8l4.3-2.1l2.1-3.9l-7.7-1.3L-292.7,299.8L-292.7,299.8z"/>
	<path class="st2" d="M-296.2,294.4l-4.4,5.1l4.4,2.5c1.1-1.1,1.7-2.6,1.6-4.1c0,0,0-0.1,0-0.1
		C-294.6,296.4-295.2,295.2-296.2,294.4L-296.2,294.4z"/>
	<path class="st1" d="M-321,296.5l2.2-5.3l-2.7-1.5c0,0-3.3,5.7-3.3,5.7L-321,296.5z"/>
	<path class="st3" d="M-289.2,308l4.5,0.6l2.4-4.3l-4.6-1.7C-287.1,304.6-287.9,306.5-289.2,308z"/>
	<polygon class="st3" points="-306.1,294.7 -300.7,301.3 -305.5,301.3 -308.9,299.1 -306.1,294.7 	"/>
	<path class="st3" d="M-311.2,288.6c0.7,1.2,1.8,1.9,3.2,2.2l0.7-4.5l-2.9-1.6l-1-0.6C-312,285.5-312,287.2-311.2,288.6z"/>
	<polygon class="st4" points="-272.4,272.8 -270.4,273.3 -268.4,267.4 -275.6,267.3 -272.4,272.8 	"/>
	<polygon class="st3" points="-289.1,280.8 -286.2,279.3 -287.1,276.7 -291.7,273.6 -295.9,276.2 -289.1,280.8 	"/>
	<polygon class="st1" points="-299.6,280.7 -294.6,284 -290.4,281.6 -295.4,278.4 -299.6,280.7 	"/>
	<path class="st0" d="M-291.5,284.2c1.3,1.6,3.2,2.6,5.3,2.7c1.2,0.1,2.4-0.2,3.6-0.7l-2.7-5.4
		C-285.4,280.8-291.5,284.2-291.5,284.2z"/>
	<polygon class="st4" points="-290.5,260.4 -296,261.6 -297.9,259.8 -293.6,254.1 -288.7,258.8 -290.5,260.4 	"/>
	<path class="st3" d="M-284,279.8l4.8-5c1.8,1.6,2.5,4.2,1.7,6.5L-284,279.8z"/>
	<path class="st1" d="M-276.8,275.4c0.3,0.5,0.5,1.1,0.7,1.6l2.5-3.2l-3.1-5.3l-1.6,5.1C-277.7,274.2-277.2,274.8-276.8,275.4z"/>
	<path class="st1" d="M-284.7,265.6l-3.9-1l1,5.5h1.3C-286.2,268.5-285.7,266.9-284.7,265.6L-284.7,265.6z"/>
	<polygon class="st1" points="-257.3,260.5 -260.1,265.5 -265.7,264.2 -264.6,260.5 -257.3,260.5 	"/>
	<polygon class="st2" points="-296.9,277.3 -299.8,279 -304.3,276 -302.1,272.3 -296.9,277.3 	"/>
	<polygon class="st0" points="-299.4,260.9 -304.5,267.6 -302.3,269.7 -296,265.3 -296.3,263.8 -299.4,260.9 	"/>
	<polygon class="st1" points="-275.7,289.8 -278,293.8 -281.7,287.7 -275.7,289.8 	"/>
	<path class="st4" d="M-279.9,296.4c0.6-2.8-0.6-5.7-2.9-7.3l-0.7,4.3L-279.9,296.4L-279.9,296.4z"/>
	<polyline class="st4" points="-300.4,282 -302.6,287 -296,290.8 -291.8,287.1 	"/>
	<polygon class="st3" points="-312.3,264.1 -312.4,260.5 -319.7,260.5 -315.2,266.6 -312.3,264.1 	"/>
	<polygon class="st0" points="-324.4,268.2 -317.9,268.7 -316.6,267.6 -319.9,262.8 -324.4,268.2 	"/>
	<polygon class="st4" points="-315.9,276.9 -312.2,270.6 -312.3,266.3 -315.7,269.1 -316.3,276.3 -315.9,276.9 	"/>
	<polygon class="st2" points="-285,292.5 -284.2,288.4 -290.4,287.7 -293.7,291 -285,292.5 	"/>
	<polygon class="st0" points="-279.7,260.5 -277.1,265.5 -273.9,265.6 -272.3,260.5 -279.7,260.5 	"/>
	<path class="st2" d="M-284.8,270.3l6,0.1l1.1-3.4l-1.6-2.7C-282.4,264.6-284.8,267.2-284.8,270.3L-284.8,270.3z"/>
	<path class="st3" d="M-288.8,261.4l0.3,1.7l5.3,1.4c0.3-0.2,0.6-0.4,0.9-0.6c0.7-0.4,1.5-0.7,2.3-0.9l-3.4-6.1
		C-283.4,256.9-286,259.1-288.8,261.4L-288.8,261.4z"/>
	<path class="st5" d="M-403.9,263.1l-1,0.3v-3.2h1V263.1z"/>
	<path class="st5" d="M-399,261h-0.7v4.5h-0.9V261h-2.3v-0.8h3.9V261z"/>
	<path class="st5" d="M-396.9,265.5h-1v-5.3h1V265.5z"/>
	<path class="st5" d="M-391.1,265.5h-0.9v-3.2c0-0.9-0.5-1.4-1.6-1.4c-0.6,0-1.3,0.1-1.9,0.3v-0.9c0.6-0.1,1.3-0.1,1.9-0.1
		c1.7,0,2.6,0.7,2.6,2.1L-391.1,265.5z M-394.5,265.5h-1v-3l1-0.3V265.5z"/>
	<path class="st5" d="M-388.8,263.1l-1,0.3v-3.2h1V263.1z"/>
	<path class="st5" d="M-383,265.5h-1v-3.2c0-0.9-0.5-1.4-1.6-1.4c-0.6,0-1.3,0.1-1.9,0.3v-0.9c0.6-0.1,1.3-0.1,1.9-0.1
		c1.7,0,2.6,0.7,2.6,2.1V265.5z M-386.4,265.5h-1v-3l1-0.3V265.5z"/>
	<path class="st5" d="M-374.7,265.5h-4.6v-5.3h2.6c1-0.1,1.9,0.7,2,1.8c0,0.1,0,0.1,0,0.2L-374.7,265.5z M-375.7,264.7v-2.5
		c0.1-0.6-0.3-1.1-0.9-1.2c-0.1,0-0.2,0-0.3,0h-1.5v3.7L-375.7,264.7z"/>
	<path class="st5" d="M-369.4,261.9c0,0.8-0.2,1.6-0.6,2.3c-0.5,0.6-1.2,1.1-2,1.3l-1.7,0.6v-0.8l1.3-0.5c-0.7-2.2-1.2-3.8-1.6-4.6
		h1.2l1.3,4.3c0.8-0.5,1.3-1.4,1.2-2.4v-1.9h1L-369.4,261.9z"/>
	<path class="st5" d="M-363.6,265.5h-0.9v-3.2c0-0.9-0.6-1.4-1.7-1.4c-0.6,0-1.3,0.1-1.9,0.3v-0.9c0.6-0.1,1.3-0.1,1.9-0.1
		c1.7,0,2.6,0.7,2.6,2.1V265.5z M-366.9,265.5h-1v-3l1-0.3V265.5z"/>
	<path class="st5" d="M-358.9,267.3h-1v-7.1h1V267.3z"/>
	<path class="st5" d="M-356.5,265.5h-1v-5.3h1V265.5z"/>
	<path class="st5" d="M-350.6,265.5h-1.1c-0.6-1-1.2-1.9-1.9-2.8c-0.4,0.3-0.6,0.7-0.6,1.2v1.6h-1V264c0.1-0.8,0.5-1.5,1.2-1.9
		c-0.4-0.6-0.9-1.2-1.4-1.9h1.1c0.5,0.7,1.2,1.5,1.9,2.5c0.3-0.2,0.5-0.6,0.6-1v-1.5h0.9v1.2c0,0.8-0.4,1.5-1.1,1.8
		C-351.5,264-351,264.7-350.6,265.5z"/>
	<path class="st5" d="M-348.6,263.1l-1,0.3v-3.2h1V263.1z"/>
	<path class="st5" d="M-345.1,261L-345.1,261c-0.4,0-0.7,0.2-0.8,0.5c-0.1,0.3-0.2,0.6-0.2,0.9v3.1h-0.9v-2.7c0-0.7,0.3-1.4,0.9-1.8
		h-1.5v-0.8h2.5V261z"/>
	<path class="st5" d="M-343.1,265.5h-1v-5.3h1V265.5z"/>
	<path class="st5" d="M-336.5,262.6c0,0.7-0.1,1.4-0.5,2c-0.4,0.6-1,1-1.7,1c-0.3,0-0.6-0.1-0.8-0.2v-0.7c0.3,0.1,0.5,0.1,0.8,0.1
		c0.5,0,0.9-0.3,1.1-0.8c0.1-0.5,0.2-0.9,0.2-1.4c0-0.4-0.1-0.8-0.3-1.1c-0.2-0.4-0.6-0.7-1-0.7c-0.5,0-0.9,0.3-1.2,1
		c-0.2,0.5-0.4,1-0.5,1.6c0,0.1-0.1,0.6-0.2,1.5l-0.1,0.5h-1c0.1-0.6,0.2-1.3,0.3-2.1c0.1-0.4,0.1-0.7,0.1-0.9
		c-0.1-0.8-0.3-1.6-0.6-2.3h1c0.1,0.5,0.3,1,0.4,1.6c0.1-0.4,0.3-0.8,0.6-1.2c0.3-0.4,0.7-0.6,1.2-0.5c0.6,0,1.2,0.3,1.6,0.8
		C-336.8,261.4-336.5,262-336.5,262.6z"/>
	<path class="st5" d="M-385.5,274.8h-1v-3.3c0-0.3-0.1-0.7-0.3-0.9c-0.3-0.2-0.6-0.3-0.9-0.3h-1.1v3.4c0,0.3-0.1,0.6-0.4,0.9
		c-0.3,0.2-0.6,0.3-1,0.3c-0.3,0-0.5-0.1-0.8-0.2V274c0.2,0,0.3,0.1,0.5,0.1c0.4,0,0.6-0.2,0.6-0.5v-3.2h-1v-0.8h3.4
		c0.5,0,1,0.2,1.4,0.5c0.4,0.4,0.6,0.9,0.6,1.4L-385.5,274.8z"/>
	<path class="st5" d="M-383.1,274.8h-1v-5.3h1V274.8z"/>
	<path class="st5" d="M-377.8,274.8h-4.1V274h3c-0.3-0.4-1.4-1.9-3.3-4.5h1.2c0.4,0.5,1,1.4,1.8,2.5c0.3-0.3,0.5-0.7,0.5-1.1v-1.4h1
		v1.2c0,0.8-0.4,1.5-1.1,1.8l1.1,1.7L-377.8,274.8z"/>
	<path class="st5" d="M-375.6,274.8h-1v-5.3h1V274.8z"/>
	<path class="st5" d="M-369.8,272.1c0,0.7-0.3,1.5-0.8,2c-0.5,0.5-1.3,0.8-2,0.8c-0.6,0-1.1-0.1-1.6-0.3v-0.8c0.5,0.2,1,0.3,1.5,0.4
		c1.3,0,1.9-0.7,1.9-2.1c0-1.4-0.5-2.1-1.6-2.1c-0.3,0-0.6,0.1-0.9,0.3c-0.2,0.2-0.4,0.5-0.4,0.8c0,0.3,0.1,0.5,0.4,0.7
		c0.3,0.1,0.5,0.2,0.8,0.2v0.6h-0.4c-0.5,0.1-0.9-0.1-1.3-0.3c-0.4-0.3-0.6-0.7-0.5-1.1c0-0.6,0.2-1.1,0.7-1.4
		c0.5-0.3,1-0.4,1.6-0.4c0.7,0,1.4,0.2,1.9,0.8C-369.9,270.7-369.7,271.4-369.8,272.1z"/>
	<path class="st5" d="M-363.5,274.8h-1v-3.3c0-0.3-0.1-0.7-0.3-0.9c-0.3-0.2-0.6-0.3-0.9-0.3h-1.1v3.4c0,0.3-0.1,0.6-0.4,0.9
		c-0.3,0.2-0.6,0.3-1,0.3c-0.3,0-0.5-0.1-0.8-0.2V274c0.2,0,0.3,0.1,0.5,0.1c0.4,0,0.7-0.2,0.7-0.5v-3.2h-1v-0.8h3.4
		c0.5,0,1,0.2,1.4,0.5c0.4,0.4,0.6,0.9,0.6,1.4L-363.5,274.8z"/>
	<path class="st5" d="M-357.7,274.8h-0.9v-3.2c0-0.9-0.6-1.4-1.7-1.4c-0.6,0-1.3,0.1-1.9,0.3v-0.9c0.6-0.1,1.3-0.1,1.9-0.1
		c1.7,0,2.6,0.7,2.6,2.1V274.8z M-361.1,274.8h-0.9v-3l1-0.3L-361.1,274.8z"/>
	<path class="st5" d="M-348.9,274.8h-1v-3.3c0-0.3-0.1-0.7-0.3-0.9c-0.3-0.2-0.6-0.3-0.9-0.3h-1.1v3.4c0,0.3-0.1,0.6-0.4,0.9
		c-0.3,0.2-0.6,0.3-1,0.3c-0.3,0-0.5-0.1-0.8-0.2V274c0.2,0,0.3,0.1,0.5,0.1c0.4,0,0.6-0.2,0.6-0.5v-3.2h-1v-0.8h3.4
		c0.5,0,1,0.2,1.4,0.5c0.4,0.4,0.6,0.9,0.6,1.4L-348.9,274.8z"/>
	<path class="st5" d="M-346.6,272.4l-1,0.3v-3.2h1V272.4z"/>
	<path class="st5" d="M-341.3,274.8h-4.4V274h2.8v-2.6c0-0.3-0.1-0.7-0.4-0.9c-0.3-0.2-0.6-0.3-1-0.3c-0.5,0-0.9,0.1-1.4,0.2v-0.8
		c0.4-0.1,0.9-0.2,1.3-0.1c0.6,0,1.2,0.1,1.6,0.5c0.5,0.4,0.7,0.9,0.7,1.5v2.6h0.6L-341.3,274.8z"/>
	<path class="st5" d="M-336.3,274.8h-4.4V274h2.8v-2.6c0-0.3-0.1-0.7-0.4-0.9c-0.3-0.2-0.6-0.3-1-0.3c-0.5,0-0.9,0.1-1.4,0.2v-0.8
		c0.4-0.1,0.9-0.2,1.3-0.1c0.6,0,1.2,0.1,1.6,0.5c0.5,0.4,0.7,0.9,0.7,1.5v2.6h0.6L-336.3,274.8z"/>
	<path class="st5" d="M-393.2,279.1h0.9l1.6,4.2l1.6-4.2h0.9v5h-0.6v-4.2l0,0l-1.6,4.2h-0.6l-1.6-4.2l0,0v4.2h-0.6L-393.2,279.1z"/>
	<path class="st5" d="M-383.1,282.3c0.1,1-0.6,1.8-1.5,1.9c-0.2,0-0.3,0-0.5,0c-1.3,0-2-0.6-2-1.9v-3.2h0.7v3.2
		c-0.1,0.7,0.4,1.3,1.1,1.4c0.1,0,0.2,0,0.3,0c0.7,0.1,1.2-0.4,1.3-1.1c0-0.1,0-0.2,0-0.3v-3.2h0.7L-383.1,282.3z"/>
	<path class="st5" d="M-379.2,280.5c0-0.6-0.6-1.1-1.2-1c0,0,0,0-0.1,0c-0.6,0-1.1,0.2-1.1,0.9c0,1.2,3.2,0.4,3.2,2.3
		c0,1.1-1,1.5-1.9,1.5c-1.1,0-2.1-0.6-2.1-1.8h0.6c0,0.8,0.7,1.2,1.5,1.2c0.6,0,1.3-0.2,1.3-0.9c0-1.4-3.2-0.5-3.2-2.3
		c0-1,0.9-1.5,1.8-1.5c0.9,0,1.8,0.5,1.8,1.6L-379.2,280.5z"/>
	<path class="st5" d="M-377.5,279.1h3.5v0.6h-2.8v1.6h2.6v0.6h-2.6v1.7h2.8v0.6h-3.5V279.1z"/>
	<path class="st5" d="M-369.3,282.3c0.1,0.9-0.6,1.8-1.5,1.9c-0.2,0-0.3,0-0.5,0c-1.3,0-2.1-0.6-2.1-1.9v-3.2h0.7v3.2
		c-0.1,0.7,0.4,1.3,1.1,1.4c0.1,0,0.2,0,0.3,0c0.7,0.1,1.2-0.4,1.3-1.1c0-0.1,0-0.2,0-0.3v-3.2h0.7L-369.3,282.3z"/>
	<path class="st5" d="M-368.2,279.1h0.9l1.6,4.2l1.6-4.2h0.9v5h-0.6v-4.2l0,0l-1.6,4.2h-0.6l-1.6-4.2l0,0v4.2h-0.6V279.1z"/>
	<path class="st5" d="M-358.1,279c1.3,0,2.4,1.1,2.4,2.4c0,0.1,0,0.2,0,0.2c0.1,1.3-0.9,2.5-2.2,2.5s-2.5-0.9-2.5-2.2
		c0-0.1,0-0.2,0-0.3c-0.1-1.3,0.8-2.5,2.1-2.6C-358.2,279-358.1,279-358.1,279z M-358.1,283.7c1.2,0,1.7-1,1.7-2.1s-0.5-2.1-1.7-2.1
		s-1.7,1-1.7,2.1S-359.3,283.6-358.1,283.7L-358.1,283.7z"/>
	<path class="st5" d="M-354.9,279.1h3.3v0.6h-2.6v1.6h2.3v0.6h-2.3v2.3h-0.7V279.1z"/>
	<path class="st5" d="M-347.8,279.6h-1.7v-0.6h4v0.6h-1.7v4.4h-0.7V279.6z"/>
	<path class="st5" d="M-344.9,279.1h0.7v2.1h2.6v-2.1h0.7v5h-0.7v-2.3h-2.6v2.3h-0.7V279.1z"/>
	<path class="st5" d="M-339.8,279.1h3.5v0.6h-2.8v1.6h2.6v0.6h-2.6v1.7h2.8v0.6h-3.5V279.1z"/>
	<path class="st5" d="M-387.6,292.1c0,0.7-0.5,1.3-1.2,1.4c-0.1,0-0.1,0-0.2,0c-0.7,0.1-1.4-0.4-1.5-1.1c0-0.1,0-0.2,0-0.3v-0.3h0.7
		v0.3c0,0.6,0.1,1,0.8,1c0.6,0,0.8-0.4,0.8-0.9v-3.7h0.7L-387.6,292.1z"/>
	<path class="st5" d="M-386.5,288.4h3.5v0.6h-2.8v1.6h2.6v0.6h-2.6v1.7h2.8v0.6h-3.5V288.4z"/>
	<path class="st5" d="M-377.7,293.4h-0.7l-1.1-4.2l0,0l-1.1,4.2h-0.7l-1.3-5h0.7l1,4.2l0,0l1.1-4.2h0.7l1.1,4.2l0,0l1-4.2h0.7
		L-377.7,293.4z"/>
	<path class="st5" d="M-375.7,288.4h0.7v5h-0.7V288.4z"/>
	<path class="st5" d="M-371,289.8c0-0.6-0.6-1.1-1.2-1c0,0,0,0-0.1,0c-0.6,0-1.1,0.2-1.1,0.9c0,1.2,3.2,0.4,3.2,2.3
		c0,1.1-1,1.5-2,1.5c-1.1,0-2.1-0.5-2.1-1.8h0.6c0,0.8,0.7,1.2,1.5,1.2c0.6,0,1.3-0.2,1.3-0.9c0-1.4-3.2-0.5-3.2-2.3
		c0-1,0.9-1.5,1.8-1.5c0.9,0,1.8,0.5,1.8,1.6L-371,289.8z"/>
	<path class="st5" d="M-369.4,288.4h0.7v2.1h2.6v-2.1h0.7v5h-0.7v-2.3h-2.6v2.3h-0.7V288.4z"/>
	<path class="st5" d="M-362.4,288.4h2.2c0.8,0,1.5,0.7,1.5,1.5c0,0.8-0.7,1.5-1.5,1.5h-1.5v2h-0.7V288.4z M-361.7,290.8h1.3
		c0.8,0,1.1-0.3,1.1-0.9s-0.3-0.9-1.1-0.9h-1.3V290.8z"/>
	<path class="st5" d="M-357.8,288.4h3.4v0.6h-2.8v1.6h2.6v0.6h-2.6v1.7h2.8v0.6h-3.5V288.4z"/>
	<path class="st5" d="M-351.5,288.3c1.4-0.1,2.7,0.9,2.9,2.4s-0.9,2.7-2.4,2.9c-1.4,0.1-2.7-0.9-2.9-2.4c0-0.1,0-0.2,0-0.2
		c-0.1-1.3,0.9-2.5,2.2-2.6C-351.6,288.3-351.5,288.3-351.5,288.3z M-351.5,292.9c1.2,0,1.7-1.1,1.7-2.1c0-1-0.5-2.1-1.7-2.1
		s-1.7,1.1-1.7,2.1C-353.2,291.9-352.7,293-351.5,292.9L-351.5,292.9z"/>
	<path class="st5" d="M-348.2,288.4h2.2c0.8,0,1.5,0.7,1.5,1.5c0,0.8-0.7,1.5-1.5,1.5h-1.6v2h-0.7V288.4z M-347.6,290.8h1.3
		c0.8,0,1.1-0.3,1.1-0.9s-0.3-0.9-1.1-0.9h-1.3V290.8z"/>
	<path class="st5" d="M-343.7,288.4h0.7v4.4h2.6v0.6h-3.3V288.4z"/>
	<path class="st5" d="M-339.8,288.4h3.5v0.6h-2.8v1.6h2.6v0.6h-2.6v1.7h2.8v0.6h-3.5V288.4z"/>
	<path class="st5" d="M-403,297.7h0.7l2,5h-0.8l-0.5-1.5h-2.1l-0.6,1.5h-0.7L-403,297.7z M-403.5,300.6h1.6l-0.8-2.3l0,0
		L-403.5,300.6z"/>
	<path class="st5" d="M-399.2,298.2h-1.7v-0.6h4v0.6h-1.7v4.4h-0.7V298.2z"/>
	<path class="st5" d="M-394.1,297.7h1.8c0.4,0,0.9,0,1.3,0.2c0.4,0.2,0.6,0.6,0.6,1c0,0.5-0.3,1-0.7,1.1l0,0c0.6,0.1,1,0.6,1,1.2
		c0,0.8-0.6,1.4-1.4,1.4c0,0-0.1,0-0.1,0h-2.5V297.7z M-393.5,299.8h1.3c0.8,0,1.1-0.3,1.1-0.8c0-0.7-0.5-0.8-1.1-0.8h-1.3V299.8z
		 M-393.5,302.1h1.7c0.5,0.1,0.9-0.3,0.9-0.8c0,0,0-0.1,0-0.1c0-0.7-0.5-0.8-1.1-0.8h-1.5V302.1z"/>
	<path class="st5" d="M-389.2,297.7h3.5v0.6h-2.8v1.6h2.6v0.6h-2.6v1.7h2.8v0.6h-3.5V297.7z"/>
	<path class="st5" d="M-384.8,297.7h0.7v5h-0.7V297.7z"/>
	<path class="st5" d="M-381.7,298.2h-1.7v-0.6h4v0.6h-1.6v4.4h-0.7V298.2z"/>
	<path class="st5" d="M-376.6,297.7h0.7v2.1h2.6v-2.1h0.7v5h-0.7v-2.3h-2.6v2.3h-0.7V297.7z"/>
	<path class="st5" d="M-370,297.7h0.7l1.9,5h-0.7l-0.6-1.5h-2.1l-0.6,1.5h-0.7L-370,297.7z M-370.5,300.6h1.7l-0.8-2.3l0,0
		L-370.5,300.6z"/>
	<path class="st5" d="M-366.2,298.2h-1.7v-0.6h4v0.6h-1.7v4.4h-0.7V298.2z"/>
	<path class="st5" d="M-363.2,297.7h3.3v0.6h-2.6v1.6h2.3v0.6h-2.3v2.3h-0.7V297.7z"/>
	<path class="st5" d="M-355,300.9c0.1,1-0.6,1.8-1.5,1.9c-0.2,0-0.3,0-0.5,0c-1.3,0-2-0.6-2-1.9v-3.2h0.7v3.2
		c-0.1,0.7,0.4,1.3,1.1,1.4c0.1,0,0.2,0,0.2,0c0.7,0.1,1.2-0.4,1.3-1.1c0-0.1,0-0.2,0-0.3v-3.2h0.7V300.9z"/>
	<path class="st5" d="M-352.7,298.2h-1.7v-0.6h4v0.6h-1.6v4.4h-0.7L-352.7,298.2z"/>
	<path class="st5" d="M-346.8,299.1c0-0.6-0.6-1.1-1.2-1c0,0,0,0-0.1,0c-0.6,0-1.1,0.2-1.1,0.9c0,1.2,3.2,0.4,3.2,2.3
		c0,1.1-1,1.5-2,1.5c-1.1,0-2.1-0.6-2.1-1.8h0.6c0,0.8,0.7,1.2,1.5,1.2c0.6,0,1.3-0.2,1.3-0.9c0-1.4-3.2-0.5-3.2-2.3
		c0-1,0.9-1.5,1.8-1.5c0.9,0,1.8,0.5,1.8,1.6L-346.8,299.1z"/>
	<path class="st5" d="M-342.9,297.6c1.4-0.1,2.7,0.9,2.8,2.4c0.1,1.4-0.9,2.7-2.4,2.8c-1.4,0.1-2.7-0.9-2.8-2.4c0-0.1,0-0.1,0-0.2
		c-0.1-1.3,0.8-2.5,2.1-2.6C-343.1,297.6-343,297.6-342.9,297.6z M-342.9,302.2c1.2,0,1.7-1,1.7-2.1s-0.5-2.1-1.7-2.1
		s-1.7,1-1.7,2.1S-344.1,302.2-342.9,302.2z"/>
	<path class="st5" d="M-338.4,298.2h-1.7v-0.6h4v0.6h-1.7v4.4h-0.7L-338.4,298.2z"/>
</g>
</svg>
