<svg width="207" height="87" xmlns:xlink="http://www.w3.org/1999/xlink" xmlns="http://www.w3.org/2000/svg"><defs><clipPath id="c"><use xlink:href="#a"/></clipPath><clipPath id="d"><use xlink:href="#b"/></clipPath><path d="M0 0h39.464v50.538H0V0z" transform="translate(.346 .326)" id="a"/><path d="M0 0h33.077v35.534H0V0z" transform="translate(.428 .233)" id="b"/></defs><path d="M164.891 62.045v-9.561c-2.881-3.12-7.561-4.729-10.685-5.884-5.216-2.127-7.049-3.049-6.908-4.254.14-1.631 3.171-2.057 6.908-1.986 2.237.125 7.101.912 10.685 2.165v-9.413c-3.675-1.297-9.39-2.112-13.645-2.112-6.598 0-11.702 1.72-14.39 4.868a7.75 7.75 0 01.448 2.578c0 2.045-.895 3.966-2.304 5.39 1.296 5.433 7.48 8.174 12.438 10.067 2.608 1.064 7.543 2.34 7.402 4.751 0 1.702-2.326 2.27-5.497 2.199-3.241-.123-9.026-1.42-13.034-2.919.002.076.009.148.009.224v9.223c4.14 1.5 10.034 2.619 15.35 2.619 7.542 0 13.658-2.61 15.332-7.955h-2.109z" fill="#FFF"/><path d="M167.346 10.326h39.464v50.538h-39.464V10.326z" fill="none"/><g clip-path="url(#c)" transform="translate(167 10)"><path d="M25.46 13.662c-6.824 0-11.819 3.3-13.929 8.634V.326H.346V50.864H11.53V33.246c0-5.686 3.588-10.037 9.004-10.037 4.995 0 8.09 3.158 8.09 9.405v18.25H39.81V29.947c0-10.178-5.557-16.285-14.35-16.285" fill="#FFF"/></g><path d="M11.336 21.391V9.633H40V0H0v51h11.336V31.025h15.64c.727-3.665 2.405-6.98 4.904-9.634H11.335z" fill="#FFF"/><path d="M47.036 16c-5.803 0-10.839 2.103-14.41 5.62-2.597 2.554-4.418 5.857-5.197 9.642A20.949 20.949 0 0027 35.5C27 46.703 35.505 55 47.036 55c.286 0 .57-.01.853-.02.101-3.705 1.123-7.182 2.957-10.154-1.125.619-2.41.956-3.81.956-5.045 0-8.576-4.255-8.576-10.283 0-6.026 3.531-10.28 8.576-10.28 4.974 0 8.506 4.254 8.506 10.28 0 1.81-.321 3.46-.902 4.884 3.343-2.875 7.65-4.572 12.36-4.88V35.5C67 24.296 58.496 16 47.036 16" fill="#FFF"/><path d="M107.828 32.349V9H119v51.567h-9.344l-1.265-8.236h-.563v-.072C105.158 58.275 99.888 62 93.355 62c-1.577 0-3.083-.2-4.503-.58-.203-.056-.404-.119-.603-.18C80.89 58.959 76 51.722 76 42.304a24.772 24.772 0 01.806-6.331c2.148-8.04 8.415-13.365 16.549-13.365 6.534 0 11.804 3.724 14.473 9.74zM88.895 48.915c1.657 2.789 4.373 4.562 7.55 4.562 5.2 0 9.276-4.87 9.276-11.173s-4.075-11.173-9.275-11.173c-5.27 0-9.274 4.87-9.274 11.173 0 1.083.12 2.122.343 3.102a12.1 12.1 0 001.38 3.509z" fill="#FFF" fill-rule="evenodd"/><path d="M77.465 53.424c.096.665.148 1.357.148 2.076 0 6.028-3.54 10.282-8.526 10.282-5.058 0-8.599-4.254-8.599-10.282 0-1.806.32-3.45.901-4.871a9.97 9.97 0 01.952-1.796 8.637 8.637 0 011.278-1.499c.477-.444 1-.826 1.565-1.138 1.147-.632 2.463-.978 3.903-.978 2.743 0 5.048 1.29 6.567 3.453a24.062 24.062 0 01-.703-5.84c0-2.06.247-4.017.705-5.849a21.983 21.983 0 00-7.497-.961c-.22.008-.436.023-.654.037-5.394.362-10.036 2.566-13.32 6.025-.461.487-.898.995-1.305 1.53-2.346 3.083-3.738 6.937-3.865 11.245-.006.214-.015.426-.015.642C49 66.705 57.527 75 69.087 75c9.052 0 16.26-5.152 18.913-12.818-4.57-1.377-8.261-4.49-10.535-8.758M130.536 46c1.877 0 3.669-.772 5.027-2.015.2-.184.391-.378.571-.58 1.147-1.292 1.866-2.958 1.866-4.76a7.2 7.2 0 00-.295-2.022 7.508 7.508 0 00-.258-.736c-1.144-2.802-3.92-4.887-6.91-4.887-4.203 0-7.537 3.568-7.537 7.645 0 4.005 3.334 7.355 7.536 7.355" fill="#FFF"/><g><path d="M114.428 51.233h33.077v35.534h-33.077V51.233z" fill="none"/><g clip-path="url(#d)" transform="translate(114 51)"><path d="M22.67 26.29V7.13c0-.16-.01-.31-.016-.465a10.14 10.14 0 00-.053-.699C22.187 2.252 19.74.233 15.567.233H5.322v9.475h5.94v16.583H.428v9.476h33.077V26.29H22.67z" fill="#FFF"/></g></g></svg>